<?xml version="1.0" encoding="utf-8"?>
<!-- Generator: Adobe Illustrator 24.1.1, SVG Export Plug-In . SVG Version: 6.00 Build 0)  -->
<svg version="1.1" id="Camada_1" xmlns="http://www.w3.org/2000/svg" xmlns:xlink="http://www.w3.org/1999/xlink" x="0px" y="0px"
	 viewBox="0 0 24 24" style="enable-background:new 0 0 24 24;" xml:space="preserve">
<path style="fill:#DE5047;" d="M7,23c-0.5,0-1-0.2-1.4-0.6S5,21.5,5,21V3c0-0.6,0.2-1,0.6-1.4S6.5,1,7,1h10c0.6,0,1,0.2,1.4,0.6
	S19,2.4,19,3v18c0,0.5-0.2,1-0.6,1.4S17.6,23,17,23H7z M7,20v1h10v-1H7z M7,18h10V6H7V18z M7,4h10V3H7V4z M7,4V3V4z M7,20v1V20z"/>
</svg>
