<?xml version="1.0" encoding="utf-8"?>
<!-- Generator: Adobe Illustrator 24.1.1, SVG Export Plug-In . SVG Version: 6.00 Build 0)  -->
<svg version="1.1" id="Camada_1" xmlns="http://www.w3.org/2000/svg" xmlns:xlink="http://www.w3.org/1999/xlink" x="0px" y="0px"
	 viewBox="0 0 500 500" style="enable-background:new 0 0 500 500;" xml:space="preserve">
<style type="text/css">
	.st0{fill-rule:evenodd;clip-rule:evenodd;fill:#DE5047;}
</style>
<path class="st0" d="M0,0v500h500V0H0z M396.6,258.3h-35.8v113.9c0,7.8-6.6,14.8-14.4,14.8h-62.1v-79.8c0-7.8-7-14.8-14.8-14.8
	h-39.1c-7.8,0-14.8,7-14.8,14.8V387h-62.1c-7.8,0-14.8-7-14.8-14.8v-114h-35.4c-7.8,0-9.5-4.1-3.7-9.5L239.1,122
	c5.8-5.3,15.6-5.3,21.8,0l31.7,28.4v-22.6c0-7.8,7-14.8,14.8-14.8h30.9c7.8,0,14.4,7,14.4,14.8l-0.1,77.4l47.7,43.6
	C406.1,254.1,404.4,258.3,396.6,258.3z"/>
</svg>
