<?xml version="1.0" encoding="utf-8"?>
<!-- Generator: Adobe Illustrator 24.1.1, SVG Export Plug-In . SVG Version: 6.00 Build 0)  -->
<svg version="1.1" id="Camada_1" xmlns="http://www.w3.org/2000/svg" xmlns:xlink="http://www.w3.org/1999/xlink" x="0px" y="0px"
	 viewBox="0 0 500 500" style="enable-background:new 0 0 500 500;" xml:space="preserve">
<style type="text/css">
	.st0{fill:#68A8B0;}
</style>
<g>
	<path class="st0" d="M263.6,140.9h-95.5V209v150.1v0.1h163.7V209.1h-68.2V140.9z M304.6,331.9H195.4v-27.3h109.2V331.9z M304.6,250
		v27.3H195.4V250H304.6z"/>
	<path class="st0" d="M0,0v500h500V0H0z M359.2,359.1c0,7.5-2.7,13.9-8,19.3c-5.3,5.4-11.8,8-19.3,8H168.1v0.1
		c-7.5,0-13.9-2.7-19.3-8c-5.3-5.3-8-11.8-8-19.3V140.8c0-7.5,2.7-13.9,8-19.3c5.3-5.3,11.8-8,19.3-8h109.2l81.9,81.9V359.1z"/>
</g>
</svg>
