<?xml version="1.0" encoding="utf-8"?>
<!-- Generator: Adobe Illustrator 24.1.1, SVG Export Plug-In . SVG Version: 6.00 Build 0)  -->
<svg version="1.1" id="Camada_1" xmlns="http://www.w3.org/2000/svg" xmlns:xlink="http://www.w3.org/1999/xlink" x="0px" y="0px"
	 viewBox="0 0 500 500" style="enable-background:new 0 0 500 500;" xml:space="preserve">
<path style="fill:#68A8B0;" d="M500,500V0H0v500H500z M245.2,308.5c-14.9,0-22.8-7.6-22.8-22.3v-3.8c0-28,15.2-43.2,35.6-57.3
	c25.3-17.1,36.9-26.9,36.9-46.4c0-21.5-16.8-36.1-42.6-36.1c-19,0-33.4,9.5-42.1,25c-9.2,10.9-11.9,19.3-28,19.3
	c-9.5,0-19.6-6.8-19.6-19.6c0-4.9,0.8-9.5,2.2-14.1c7.3-26.3,40.2-49.2,89.1-49.2c48.6,0,90.7,25.3,90.7,72.5
	c0,34.2-19.8,50.5-47.5,69.3c-19.6,13.3-29.1,23.1-29.1,39.1v3.5C268.1,299.6,259.4,308.5,245.2,308.5z M246.1,390.3
	c-15.5,0-30.4-12.5-30.4-29.3c0-16.8,14.7-29.3,30.4-29.3c16,0,30.4,12.2,30.4,29.3C276.5,378.1,261.8,390.3,246.1,390.3z"/>
</svg>
